<?xml version="1.0" encoding="UTF-8"?>
<svg version="1.1" xmlns="http://www.w3.org/2000/svg" width="495" height="495">
<path d="M0 0 C6.96783044 4.87084528 12.25842878 11.57203406 14.80078125 19.74609375 C15.20221087 22.95500154 15.18129122 26.12288453 15.14135742 29.35327148 C15.1417955 30.29063644 15.14223358 31.2280014 15.14268494 32.19377136 C15.14060544 35.27262662 15.11731385 38.35092811 15.09375 41.4296875 C15.08815107 43.57202355 15.08388237 45.71436344 15.08088684 47.85670471 C15.06946152 53.48081159 15.04001411 59.10468411 15.0067749 64.72869873 C14.9760242 70.47339712 14.96237082 76.21813356 14.94726562 81.96289062 C14.91514231 93.22406101 14.86397385 104.48505785 14.80078125 115.74609375 C15.39893583 115.94248097 15.99709042 116.1388682 16.6133709 116.34120655 C24.5117485 118.95084226 24.5117485 118.95084226 28.24267578 120.48510742 C28.99842896 120.79419037 29.75418213 121.10327332 30.53283691 121.42172241 C31.32508667 121.74919464 32.11733643 122.07666687 32.93359375 122.4140625 C33.79239136 122.76618805 34.65118896 123.1183136 35.53601074 123.48110962 C38.33379639 124.62905171 41.12983306 125.78118435 43.92578125 126.93359375 C45.87799583 127.73615629 47.83030836 128.53848059 49.78271484 129.34057617 C52.78791151 130.57533627 55.79296971 131.81042595 58.79751587 133.04676819 C65.53241975 135.81759317 72.27394598 138.57170106 79.01953125 141.31640625 C81.64953173 142.38838465 84.27936648 143.46076832 86.90911865 144.53335571 C88.56863607 145.20940994 90.22865976 145.88422294 91.88922119 146.55770874 C121.82747502 158.70480277 121.82747502 158.70480277 127.23828125 170.49609375 C128.9070733 174.65684881 129.92267612 178.45689109 129.94058895 182.95293427 C129.94628019 183.78951301 129.95197143 184.62609176 129.95783514 185.48802137 C129.95901501 186.40201216 129.96019489 187.31600295 129.96141052 188.25769043 C129.96904225 189.72019564 129.96904225 189.72019564 129.97682816 191.21224642 C129.99255914 194.4885014 130.0010795 197.76473432 130.00952148 201.04101562 C130.01905952 203.3866388 130.02895066 205.73226055 130.03916931 208.07788086 C130.07056358 215.79018482 130.09082382 223.50249959 130.109375 231.21484375 C130.11267232 232.52723337 130.11596964 233.83962299 130.11936688 235.191782 C130.15015074 247.57091658 130.17701769 259.95005393 130.19378567 272.329216 C130.1977349 275.19538888 130.20173793 278.06156167 130.20581055 280.92773438 C130.20681891 281.64007219 130.20782727 282.35241 130.20886619 283.08633381 C130.22585701 294.61436267 130.26694962 306.14217627 130.31783354 317.67010015 C130.3696947 329.51733405 130.39873916 341.36445749 130.40598255 353.21180391 C130.41063441 359.85886547 130.42597346 366.50561418 130.46572685 373.15257263 C130.50265934 379.41042842 130.5109806 385.66768421 130.49772072 391.92562866 C130.49777456 394.21689761 130.508026 396.5081936 130.52947235 398.79936218 C130.65577216 413.05981931 130.26287825 423.33080149 120.67578125 434.62109375 C112.23155566 442.24512966 101.02645033 446.17110012 89.73828125 445.74609375 C85.01309423 445.13070845 80.69953669 443.80560082 76.23828125 442.1875 C75.13660866 441.792994 75.13660866 441.792994 74.01268005 441.39051819 C65.5102975 438.32060691 57.08391716 435.05140302 48.66049194 431.7723999 C43.81085134 429.88469136 38.95787213 428.00559256 34.10546875 426.125 C33.13620956 425.74907715 32.16695038 425.3731543 31.1683197 424.98583984 C22.61837739 421.67107767 14.05612068 418.38926646 5.48828125 415.12109375 C-6.94171969 410.37775744 -19.36130748 405.6079698 -31.77633667 400.82559204 C-43.49116227 396.31403722 -55.21600567 391.82926855 -66.94673157 387.35922241 C-79.7016302 382.49880776 -92.45275095 377.6285775 -105.19921875 372.74609375 C-106.25463867 372.34187195 -107.31005859 371.93765015 -108.39746094 371.5211792 C-114.24536906 369.27996245 -120.09004739 367.0306563 -125.92999268 364.76876831 C-127.66735315 364.09683092 -129.40557066 363.42710452 -131.14471436 362.75979614 C-147.92222683 356.31777766 -147.92222683 356.31777766 -155.19921875 351.74609375 C-156.08609375 351.18921875 -156.97296875 350.63234375 -157.88671875 350.05859375 C-165.17392495 342.77138755 -168.40748859 334.0307631 -168.47602975 323.89913964 C-168.47293255 322.86509995 -168.46983535 321.83106026 -168.46664429 320.76568604 C-168.4711754 319.6568889 -168.47570651 318.54809177 -168.48037493 317.40569472 C-168.49303942 313.6887151 -168.49139721 309.97188163 -168.48974609 306.25488281 C-168.49573008 303.59044856 -168.50247874 300.92602576 -168.51010132 298.26159668 C-168.52669904 291.77395314 -168.53221032 285.28634595 -168.53332607 278.79868296 C-168.53427721 273.52335327 -168.53839077 268.24803555 -168.54472733 262.97270966 C-168.56233702 248.00700138 -168.57156672 233.04132175 -168.57006638 218.07560304 C-168.56998647 217.26915989 -168.56990655 216.46271675 -168.56982422 215.63183594 C-168.56970158 214.42068928 -168.56970158 214.42068928 -168.56957646 213.18507501 C-168.56876382 200.10391306 -168.58789666 187.02286632 -168.61610095 173.94173768 C-168.64485097 160.50112374 -168.65864006 147.06056595 -168.6569134 133.61992049 C-168.65625019 126.07766208 -168.66171205 118.53552443 -168.6832695 110.99329376 C-168.7015093 104.5707573 -168.70580584 98.14839632 -168.69225065 91.72584513 C-168.68573472 88.4515924 -168.68774074 85.17774479 -168.70295715 81.90351105 C-168.71841336 78.34685365 -168.70909761 74.79107478 -168.69369507 71.23443604 C-168.70398219 70.20931923 -168.71426932 69.18420243 -168.72486818 68.12802148 C-168.64220586 59.46693127 -166.47972013 51.50503464 -160.57421875 44.93359375 C-159.98382813 44.24652344 -159.3934375 43.55945313 -158.78515625 42.8515625 C-150.95760244 36.47837292 -140.9222978 33.79693813 -131.44921875 30.7890625 C-130.00647581 30.32441661 -128.5639611 29.85906154 -127.12165833 29.39305115 C-123.27720986 28.15309245 -119.42968105 26.92297442 -115.58142471 25.69489288 C-111.58982128 24.41926673 -107.60110514 23.13467485 -103.61206055 21.85107422 C-96.41169556 19.53558663 -89.20883291 17.22798657 -82.00477695 14.92401123 C-75.73846845 12.91961213 -69.47445146 10.90814601 -63.21121216 8.8941803 C-57.47874378 7.05098147 -51.74542266 5.21044519 -46.01171875 3.37109375 C-44.95782959 3.03298676 -43.90394043 2.69487976 -42.81811523 2.3465271 C-39.88965377 1.40785164 -36.96058701 0.4710953 -34.03125 -0.46484375 C-33.18359573 -0.73663956 -32.33594147 -1.00843536 -31.46260071 -1.28846741 C-30.68837265 -1.53535812 -29.91414459 -1.78224884 -29.11645508 -2.03662109 C-28.45124344 -2.24926605 -27.7860318 -2.46191101 -27.10066223 -2.68099976 C-17.77096868 -5.49204414 -8.59270432 -4.89921507 0 0 Z " fill="#0192FE" transform="translate(274.19921875,35.25390625)"/>
<path d="M0 0 C2.88040396 3.63181369 4.12632675 6.36003946 4.12025452 11.0052948 C4.12231651 12.22311897 4.12231651 12.22311897 4.12442017 13.46554565 C4.12082489 14.35243073 4.11722961 15.2393158 4.11352539 16.15307617 C4.11367142 17.08985703 4.11381744 18.02663788 4.1139679 18.99180603 C4.1132705 22.09221705 4.10548617 25.19256821 4.09765625 28.29296875 C4.09579146 30.44102445 4.09436784 32.58908057 4.09336853 34.73713684 C4.0895482 40.39408541 4.07972201 46.05100835 4.06866455 51.70794678 C4.05844005 57.47912245 4.05386868 63.25030226 4.04882812 69.02148438 C4.03809934 80.34766752 4.02102869 91.67383163 4 103 C4.59815458 103.19638722 5.19630917 103.39277445 5.81258965 103.5951128 C13.71096725 106.20474851 13.71096725 106.20474851 17.44189453 107.73901367 C18.19764771 108.04809662 18.95340088 108.35717957 19.73205566 108.67562866 C20.52430542 109.00310089 21.31655518 109.33057312 22.1328125 109.66796875 C22.99161011 110.0200943 23.85040771 110.37221985 24.73522949 110.73501587 C27.53301514 111.88295796 30.32905181 113.0350906 33.125 114.1875 C35.07721458 114.99006254 37.02952711 115.79238684 38.98193359 116.59448242 C41.98713026 117.82924252 44.99218846 119.0643322 47.99673462 120.30067444 C54.7316385 123.07149942 61.47316473 125.82560731 68.21875 128.5703125 C70.84875048 129.6422909 73.47858523 130.71467457 76.1083374 131.78726196 C77.76785482 132.46331619 79.42787851 133.13812919 81.08843994 133.81161499 C111.02669377 145.95870902 111.02669377 145.95870902 116.4375 157.75 C118.10629205 161.91075506 119.12189487 165.71079734 119.1398077 170.20684052 C119.14549894 171.04341926 119.15119018 171.87999801 119.15705389 172.74192762 C119.15823376 173.65591841 119.15941364 174.5699092 119.16062927 175.51159668 C119.168261 176.97410189 119.168261 176.97410189 119.17604691 178.46615267 C119.19177789 181.74240765 119.20029825 185.01864057 119.20874023 188.29492188 C119.21827827 190.64054505 119.22816941 192.9861668 119.23838806 195.33178711 C119.26978233 203.04409107 119.29004257 210.75640584 119.30859375 218.46875 C119.31189107 219.78113962 119.31518839 221.09352924 119.31858563 222.44568825 C119.34936949 234.82482283 119.37623644 247.20396018 119.39300442 259.58312225 C119.39695365 262.44929513 119.40095668 265.31546792 119.4050293 268.18164062 C119.40603766 268.89397844 119.40704602 269.60631625 119.40808494 270.34024006 C119.42507576 281.86826892 119.46616837 293.39608252 119.51705229 304.9240064 C119.56891345 316.7712403 119.59795791 328.61836374 119.6052013 340.46571016 C119.60985316 347.11277172 119.62519221 353.75952043 119.6649456 360.40647888 C119.70187809 366.66433467 119.71019935 372.92159046 119.69693947 379.17953491 C119.69699331 381.47080386 119.70724475 383.76209985 119.7286911 386.05326843 C119.85499091 400.31372556 119.462097 410.58470774 109.875 421.875 C101.43077441 429.49903591 90.22566908 433.42500637 78.9375 433 C74.21231298 432.3846147 69.89875544 431.05950707 65.4375 429.44140625 C64.33582741 429.04690025 64.33582741 429.04690025 63.2118988 428.64442444 C54.70951625 425.57451316 46.28313591 422.30530927 37.85971069 419.02630615 C33.01007009 417.13859761 28.15709088 415.25949881 23.3046875 413.37890625 C22.33542831 413.0029834 21.36616913 412.62706055 20.36753845 412.23974609 C11.81759614 408.92498392 3.25533943 405.64317271 -5.3125 402.375 C-17.73982059 397.63268653 -30.15685243 392.86423953 -42.56906128 388.08251953 C-53.21949032 383.98045505 -63.87758476 379.8989695 -74.54296875 375.8359375 C-99.41644003 366.3590832 -124.27585204 356.86110871 -149 347 C-148.01 346.34 -147.02 345.68 -146 345 C-146.54140625 344.33871094 -146.54140625 344.33871094 -147.09375 343.6640625 C-152.37960682 335.99957011 -152.30421422 326.96286232 -151 318 C-149.89310525 314.63543004 -148.43522353 312.53436749 -146 310 C-145.50371094 309.37996094 -145.00742188 308.75992187 -144.49609375 308.12109375 C-141.39626055 304.54321398 -138.498031 302.58611213 -134.01953125 301.05078125 C-132.56256836 300.54587158 -132.56256836 300.54587158 -131.07617188 300.03076172 C-130.06103516 299.69061035 -129.04589844 299.35045898 -128 299 C-127.00548828 298.66371582 -126.01097656 298.32743164 -124.98632812 297.98095703 C-121.93164742 296.95632928 -118.87296286 295.94471638 -115.8125 294.9375 C-109.15501764 292.74616568 -102.55230851 290.48803948 -96 288 C-94.08758955 287.34167023 -92.17118838 286.6947555 -90.25 286.0625 C-88.69539063 285.54816406 -88.69539063 285.54816406 -87.109375 285.0234375 C-85.16161373 284.3823402 -83.21371826 283.74165029 -81.265625 283.1015625 C-75.81950346 281.30157318 -70.39925411 279.43996052 -64.99169922 277.52783203 C-57.32466038 274.81776611 -49.64289995 272.21949843 -41.875 269.8125 C-35.44692048 267.81641215 -29.20292253 265.6221946 -23 263 C-22.14019531 262.67257812 -21.28039062 262.34515625 -20.39453125 262.0078125 C-15.44017057 260.11974004 -11.33522481 258.03465737 -7 255 C-6.34 255 -5.68 255 -5 255 C-5 254.34 -5 253.68 -5 253 C-4.236875 252.2575 -3.47375 251.515 -2.6875 250.75 C3.50085854 244.41772614 3.4257548 238.57804445 3.35644531 230.15844727 C3.35846136 228.96240026 3.36047741 227.76635324 3.36255455 226.53406239 C3.36499417 223.23782937 3.35397957 219.94215363 3.33698702 216.64599752 C3.32197691 213.12367559 3.32401303 209.60135819 3.32382202 206.07901001 C3.32060627 199.263821 3.30095342 192.44877637 3.27510417 185.63363934 C3.25457432 180.14432389 3.24024307 174.65502421 3.23016357 169.16567993 C3.19111695 148.15626369 3.1157439 127.14717895 3.01066017 106.13799095 C3.0002608 104.05230655 2.99005809 101.96662128 2.97990417 99.88093567 C2.90013314 83.66378944 2.79586823 67.44705851 2.65122986 51.23035812 C2.6250129 48.18899594 2.60181081 45.1476228 2.57922363 42.10623169 C2.54335225 37.40211141 2.49718355 32.69820878 2.44218826 27.99427414 C2.42372929 26.30344201 2.40842436 24.6125719 2.39658737 22.92168045 C2.37988282 20.6470322 2.35105924 18.37286256 2.31884766 16.09838867 C2.29886215 14.20790047 2.29886215 14.20790047 2.2784729 12.27922058 C2.00633163 9.07455959 1.24426376 6.92805889 0 4 C0 2.68 0 1.36 0 0 Z " fill="#67E2FD" transform="translate(285,48)"/>
<path d="M0 0 C6.01827122 4.3100777 10.54893105 8.51664465 12.015625 15.98828125 C12.20898438 17.28185547 12.20898438 17.28185547 12.40625 18.6015625 C12.55777196 20.65993265 12.55777196 20.65993265 13.765625 21.67578125 C13.86087867 24.5977279 13.89115236 27.49598454 13.87915039 30.41821289 C13.87929642 31.33519455 13.87944244 32.25217621 13.8795929 33.19694519 C13.8788934 36.24329961 13.87109928 39.2895937 13.86328125 42.3359375 C13.8614172 44.44201118 13.85999324 46.54808528 13.85899353 48.65415955 C13.85516731 54.20921008 13.84533614 59.76423466 13.83428955 65.3192749 C13.82407767 70.98302865 13.81949639 76.64678658 13.81445312 82.31054688 C13.80371396 93.4323031 13.7866363 104.55404002 13.765625 115.67578125 C9.145625 114.35578125 4.525625 113.03578125 -0.234375 111.67578125 C-0.234375 111.01578125 -0.234375 110.35578125 -0.234375 109.67578125 C-0.99234375 109.59972656 -1.7503125 109.52367187 -2.53125 109.4453125 C-7.76495399 108.35771789 -12.53478031 106.35394835 -17.484375 104.36328125 C-18.96357422 103.77643555 -18.96357422 103.77643555 -20.47265625 103.17773438 C-23.3957349 102.01659048 -26.31510821 100.84646935 -29.234375 99.67578125 C-30.16427246 99.30646484 -31.09416992 98.93714844 -32.05224609 98.55664062 C-32.92961426 98.20794922 -33.80698242 97.85925781 -34.7109375 97.5 C-35.48518066 97.19280029 -36.25942383 96.88560059 -37.05712891 96.5690918 C-39.18395045 95.69647013 -41.27253047 94.76461483 -43.359375 93.80078125 C-48.25191492 91.59348971 -53.26918098 89.75171672 -58.29931641 87.88720703 C-61.96415993 86.52842879 -65.61253832 85.14657787 -69.234375 83.67578125 C-74.23135306 81.64997933 -79.28191931 79.77608596 -84.33398438 77.89331055 C-88.85863606 76.20301154 -93.35654805 74.45981875 -97.828125 72.6328125 C-99.8374278 71.83365798 -101.86237306 71.07397855 -103.890625 70.32421875 C-132.30863684 59.68070663 -132.30863684 59.68070663 -137.43359375 49.23046875 C-138.28425043 46.51666645 -138.32022018 44.84399682 -137.921875 42.05078125 C-137.82261719 41.29539063 -137.72335938 40.54 -137.62109375 39.76171875 C-137.234375 37.67578125 -137.234375 37.67578125 -136.234375 34.67578125 C-136.98203125 34.97613281 -137.7296875 35.27648437 -138.5 35.5859375 C-139.48484375 35.96621094 -140.4696875 36.34648438 -141.484375 36.73828125 C-142.45890625 37.12113281 -143.4334375 37.50398438 -144.4375 37.8984375 C-147.36552653 38.71223258 -148.42245469 38.52093707 -151.234375 37.67578125 C-127.97860207 29.81089313 -104.63940092 22.202589 -81.2870369 14.63048172 C-78.94676613 13.87135532 -76.60675558 13.11143193 -74.26681519 12.35128784 C-65.55151535 9.52087731 -56.83164609 6.70539574 -48.10345459 3.91497803 C-45.61347968 3.11871491 -43.12567771 2.31656642 -40.63873291 1.51080322 C-37.47269147 0.4866053 -34.30191609 -0.52107533 -31.12890625 -1.5234375 C-29.79613899 -1.95992363 -29.79613899 -1.95992363 -28.43644714 -2.40522766 C-18.66909415 -5.44290073 -9.00051968 -5.33422407 0 0 Z " fill="#01C8FE" transform="translate(274.234375,35.32421875)"/>
<path d="M0 0 C0.33 0 0.66 0 1 0 C1.13942 13.63489431 1.27313423 27.26984097 1.40365601 40.9048233 C1.42613603 43.25131559 1.44869809 45.5978071 1.47134399 47.94429779 C1.79664697 81.69623173 2.05045548 115.44800708 2.23837018 149.20097566 C2.25901182 152.89388459 2.28002319 156.58679138 2.30103976 160.27969819 C2.39510649 176.82214503 2.48772868 193.36459035 2.56734198 209.90711385 C2.60123646 216.90736681 2.6384968 223.90759686 2.67825109 230.90781897 C2.70579961 235.79393924 2.72917205 240.68005507 2.74934965 245.56621104 C2.76270246 248.55123711 2.78012313 251.53622871 2.79875672 254.52122605 C2.80653051 255.89836019 2.81261211 257.27550507 2.81688488 258.65265453 C2.82291429 260.52196588 2.83552844 262.39125257 2.84851074 264.26052856 C2.85366447 265.30346132 2.85881821 266.34639408 2.86412811 267.42093086 C2.8916103 270.11796426 2.8916103 270.11796426 4 273 C4.144375 273.70125 4.28875 274.4025 4.4375 275.125 C4.623125 275.74375 4.80875 276.3625 5 277 C5.66 277.33 6.32 277.66 7 278 C8.35308313 279.31328657 9.68870078 280.64499081 11 282 C11 281.34 11 280.68 11 280 C11.66 280.33 12.32 280.66 13 281 C12.67 281.99 12.34 282.98 12 284 C13.37249963 286.67676547 13.37249963 286.67676547 15 289 C8.23185108 286.24260599 4.3664026 280.18900171 1 274 C0.04513104 271.13539312 -0.12442024 269.36981973 -0.12304783 266.39854908 C-0.12503888 265.44857573 -0.12702993 264.49860239 -0.12908131 263.51984197 C-0.12616847 262.47413351 -0.12325563 261.42842504 -0.12025452 260.35102844 C-0.12110894 259.24182248 -0.12196337 258.13261651 -0.12284368 256.98979825 C-0.12449751 253.25400623 -0.11897865 249.51825862 -0.11352539 245.7824707 C-0.11324347 243.11211038 -0.11335726 240.44175281 -0.1139679 237.77139282 C-0.11449273 232.01249541 -0.11135017 226.25360931 -0.10573006 220.49471474 C-0.09760956 212.16827873 -0.09499927 203.8418482 -0.09374207 195.51540866 C-0.09155241 182.00693275 -0.08489467 168.49846287 -0.07543945 154.98999023 C-0.0662631 141.86629263 -0.05918335 128.74259665 -0.05493164 115.61889648 C-0.05466892 114.81020885 -0.05440619 114.00152122 -0.05413551 113.16832791 C-0.05283049 109.11145651 -0.05156678 105.0545851 -0.05032361 100.99771369 C-0.03995369 67.33180475 -0.02233773 33.66590311 0 0 Z " fill="#1888DF" transform="translate(107,99)"/>
<path d="M0 0 C0.33 0 0.66 0 1 0 C1.00634791 1.24047828 1.00634791 1.24047828 1.01282406 2.50601673 C1.11604297 22.61069147 1.22466752 42.71533063 1.33933926 62.81994343 C1.39466227 72.54230351 1.44814277 82.26466725 1.49731445 91.98706055 C1.54016756 100.45920611 1.58644843 108.93132476 1.63687855 117.40342873 C1.66347038 121.89103263 1.68832326 126.37863122 1.70907402 130.86626625 C1.7286473 135.08755799 1.7527932 139.30879854 1.78049088 143.53004456 C1.78985764 145.08166767 1.79753427 146.63330202 1.80341911 148.18494225 C1.81168666 150.29903578 1.82596513 152.41300529 1.84178162 154.52705383 C1.84823417 155.71155782 1.85468672 156.8960618 1.8613348 158.11645985 C1.87316409 161.06998334 1.87316409 161.06998334 3 164 C3.144375 164.70125 3.28875 165.4025 3.4375 166.125 C3.7159375 167.053125 3.7159375 167.053125 4 168 C4.66 168.33 5.32 168.66 6 169 C7.35308313 170.31328657 8.68870078 171.64499081 10 173 C10 172.34 10 171.68 10 171 C10.66 171.33 11.32 171.66 12 172 C11.67 172.99 11.34 173.98 11 175 C12.37249963 177.67676547 12.37249963 177.67676547 14 180 C7.5162157 177.35845825 2.82014633 171.26940223 0 165 C-0.80944146 160.34108444 -1.11611118 155.88352828 -1.08229065 151.15992737 C-1.07906152 150.50874512 -1.07583239 149.85756287 -1.07250541 149.18664783 C-1.0605305 147.02484113 -1.041138 144.86316775 -1.02172852 142.70141602 C-1.01157507 141.14375591 -1.00188257 139.58609275 -0.99261475 138.02842712 C-0.9662404 133.81405762 -0.9334396 129.59976 -0.89946485 125.38544583 C-0.86501576 120.9758969 -0.83650483 116.56630962 -0.80735779 112.15672302 C-0.75130676 103.81292085 -0.68993317 95.4691667 -0.62663645 87.1254167 C-0.55481484 77.62364948 -0.48894335 68.12184392 -0.42356598 58.62003052 C-0.28898729 39.07997039 -0.14695485 19.53997077 0 0 Z " fill="#068EF4" transform="translate(108,208)"/>
<path d="M0 0 C1.6480916 1.16961339 3.23775581 2.42085793 4.8125 3.6875 C4.1525 4.0175 3.4925 4.3475 2.8125 4.6875 C1.8225 4.3575 0.8325 4.0275 -0.1875 3.6875 C-0.1875 3.0275 -0.1875 2.3675 -0.1875 1.6875 C-1.321875 1.56375 -2.45625 1.44 -3.625 1.3125 C-6.72835631 0.94643508 -9.613227 0.32187467 -12.625 -0.5 C-18.06898985 -1.78538649 -23.20586065 -0.80331968 -28.1875 1.6875 C-30.09937521 2.02808855 -32.01715059 2.33599219 -33.9375 2.625 C-37.36974235 3.166933 -40.388498 3.75569575 -43.6875 4.875 C-46.4541551 5.77416291 -47.48007693 5.49628528 -50.1875 4.6875 C-46.22752111 3.38886946 -42.26235318 2.10794245 -38.29174805 0.84228516 C-36.94518515 0.4104447 -35.60008313 -0.02598157 -34.2565918 -0.46728516 C-22.40543756 -4.354499 -11.36366516 -6.8181991 0 0 Z " fill="#79E0F8" transform="translate(274.1875,35.3125)"/>
<path d="M0 0 C2.89255713 3.64713726 4.12628679 6.38031418 4.12025452 11.04325867 C4.12162918 11.8635556 4.12300385 12.68385254 4.12442017 13.52900696 C4.12082489 14.42524277 4.11722961 15.32147858 4.11352539 16.24487305 C4.11367142 17.19140747 4.11381744 18.13794189 4.1139679 19.11315918 C4.11327047 22.24603557 4.10548599 25.37885273 4.09765625 28.51171875 C4.09579147 30.6821947 4.09436785 32.85267106 4.09336853 35.02314758 C4.08954811 40.73927978 4.07972184 46.45538662 4.06866455 52.17150879 C4.05844024 58.00300758 4.05386872 63.83451046 4.04882812 69.66601562 C4.03809918 81.11068823 4.02102842 92.55534201 4 104 C3.67 104 3.34 104 3 104 C2.99191315 102.82093582 2.98382629 101.64187164 2.97549438 100.42707825 C2.89802427 89.31784981 2.81028263 78.20874371 2.71247292 67.09967518 C2.66251789 61.38833357 2.61618762 55.6770104 2.578125 49.96557617 C2.5412624 44.45418091 2.49489949 38.9429401 2.44193649 33.43167686 C2.42339779 31.32856644 2.40828789 29.22542292 2.39665604 27.12226295 C2.37978485 24.17745763 2.35074724 21.23300562 2.31884766 18.28833008 C2.31668747 17.4179863 2.31452728 16.54764252 2.31230164 15.65092468 C2.25132561 11.24728422 1.83691422 8.06617821 0 4 C0 2.68 0 1.36 0 0 Z " fill="#6ACFED" transform="translate(285,48)"/>
<path d="M0 0 C-7.45731266 4.07040587 -15.00723054 6.85101294 -23.125 9.3125 C-24.25292969 9.67150391 -25.38085938 10.03050781 -26.54296875 10.40039062 C-32.57278503 12.25165001 -37.69035877 13.45509637 -44 13 C-40.44500403 10.63000269 -36.77796696 9.45944867 -32.75390625 8.14453125 C-31.94638412 7.87863693 -31.138862 7.61274261 -30.30686951 7.33879089 C-28.60049627 6.779113 -26.8932837 6.22198854 -25.18530273 5.66723633 C-22.57230361 4.81569487 -19.96493061 3.94826364 -17.35742188 3.08007812 C-15.69823819 2.53807725 -14.03874282 1.9970294 -12.37890625 1.45703125 C-11.59963272 1.19565872 -10.82035919 0.93428619 -10.01747131 0.66499329 C-6.24240868 -0.54312352 -3.78573076 -1.20247225 0 0 Z " fill="#58D5F5" transform="translate(206,48)"/>
<path d="M0 0 C-0.99 2.64 -1.98 5.28 -3 8 C-3.66 8 -4.32 8 -5 8 C-5 10.64 -5 13.28 -5 16 C-4.34 16 -3.68 16 -3 16 C-2.34 17.98 -1.68 19.96 -1 22 C-4.55487922 19.17432678 -6.34450131 17.0229049 -7 12.5625 C-7.27573687 8.33453465 -6.31016746 5.60386124 -4 2 C-5.22976562 2.45052734 -5.22976562 2.45052734 -6.484375 2.91015625 C-7.56203125 3.29042969 -8.6396875 3.67070313 -9.75 4.0625 C-10.81734375 4.44535156 -11.8846875 4.82820313 -12.984375 5.22265625 C-16.03776383 6.00973446 -17.10042288 5.87807949 -20 5 C-17.2328864 3.96794141 -14.46208746 2.94909171 -11.6875 1.9375 C-10.90181641 1.64294922 -10.11613281 1.34839844 -9.30664062 1.04492188 C-8.54931641 0.77099609 -7.79199219 0.49707031 -7.01171875 0.21484375 C-6.31522217 -0.04176025 -5.61872559 -0.29836426 -4.90112305 -0.56274414 C-3 -1 -3 -1 0 0 Z " fill="#45C7FC" transform="translate(143,68)"/>
<path d="M0 0 C1.9375 1.0625 1.9375 1.0625 4 3 C4.40047444 5.32275177 4.7397104 7.65739357 5 10 C5.66 10.33 6.32 10.66 7 11 C8.35308313 12.31328657 9.68870078 13.64499081 11 15 C11 14.34 11 13.68 11 13 C11.66 13.33 12.32 13.66 13 14 C12.67 14.99 12.34 15.98 12 17 C13.37249963 19.67676547 13.37249963 19.67676547 15 22 C8.38609227 19.305445 4.03583042 13.26066196 1 7 C0.37907723 4.59789002 0.15571157 2.4913851 0 0 Z " fill="#52B0F2" transform="translate(107,366)"/>
<path d="M0 0 C4.95 1.98 9.9 3.96 15 6 C15 6.66 15 7.32 15 8 C15.61488281 8.13277344 16.22976563 8.26554688 16.86328125 8.40234375 C18.07564453 8.66724609 18.07564453 8.66724609 19.3125 8.9375 C20.51326172 9.19853516 20.51326172 9.19853516 21.73828125 9.46484375 C24 10 24 10 27 11 C27 11.66 27 12.32 27 13 C27.99 13.33 28.98 13.66 30 14 C26.62294375 13.46274105 23.303314 12.88935377 20 12 C20 11.34 20 10.68 20 10 C18.75863281 9.84724609 18.75863281 9.84724609 17.4921875 9.69140625 C13.44723447 8.89055984 9.91609737 7.52079745 6.125 5.9375 C5.43664062 5.65583984 4.74828125 5.37417969 4.0390625 5.08398438 C2.35710091 4.39484734 0.67822303 3.69819202 -1 3 C-0.67 2.01 -0.34 1.02 0 0 Z " fill="#0DBCFE" transform="translate(254,135)"/>
<path d="M0 0 C3.66402203 0.62655065 6.87061201 1.64218393 10.30078125 3.06640625 C11.76547852 3.6706543 11.76547852 3.6706543 13.25976562 4.28710938 C14.26716797 4.70798828 15.27457031 5.12886719 16.3125 5.5625 C17.33923828 5.98724609 18.36597656 6.41199219 19.42382812 6.84960938 C21.95092341 7.89570928 24.47620894 8.94595916 27 10 C27 10.33 27 10.66 27 11 C25.58297487 10.85769192 24.1663904 10.71099254 22.75 10.5625 C21.56664062 10.44068359 21.56664062 10.44068359 20.359375 10.31640625 C18.17635361 10.02365007 16.1226818 9.57935581 14 9 C14 8.01 14 7.02 14 6 C12.72125 5.855625 11.4425 5.71125 10.125 5.5625 C7.74307106 5.29357254 6.15547309 5.07773654 4 4 C4 3.34 4 2.68 4 2 C2.68 2 1.36 2 0 2 C0 1.34 0 0.68 0 0 Z " fill="#A6ECF9" transform="translate(354,178)"/>
<path d="M0 0 C2.64 0.33 5.28 0.66 8 1 C8 1.66 8 2.32 8 3 C8.556875 3.10957031 9.11375 3.21914062 9.6875 3.33203125 C15.73830968 4.58920961 21.44457152 6.22228576 27 9 C27 9.66 27 10.32 27 11 C22.40173973 10.54017397 19.09439778 9.16429978 15.08203125 7.046875 C11.82615031 5.40977164 8.42357479 4.23365488 5 3 C3.33094605 2.33933281 1.6630584 1.67561748 0 1 C0 0.67 0 0.34 0 0 Z " fill="#0CBEFE" transform="translate(221,124)"/>
<path d="M0 0 C7.18216433 2.27435204 14.0758202 5.03584181 21 8 C21 8.33 21 8.66 21 9 C14.26298536 8.56535389 7.88899367 7.50667865 2 4 C0.71484375 1.86328125 0.71484375 1.86328125 0 0 Z " fill="#97E9F6" transform="translate(289,151)"/>
<path d="M0 0 C7.99242475 -0.73027231 12.99270267 -0.2609086 19.453125 4.6875 C19.96359375 5.120625 20.4740625 5.55375 21 6 C20.01 6.495 20.01 6.495 19 7 C18.01 6.67 17.02 6.34 16 6 C16 5.34 16 4.68 16 4 C14.845 3.87625 13.69 3.7525 12.5 3.625 C8.21649625 3.09721115 4.16647328 2.11601963 0 1 C0 0.67 0 0.34 0 0 Z " fill="#50D1F4" transform="translate(258,33)"/>
<path d="M0 0 C1.98 0.66 3.96 1.32 6 2 C6 2.66 6 3.32 6 4 C7.8253125 4.1546875 7.8253125 4.1546875 9.6875 4.3125 C13.41069448 4.76219312 15.91662995 5.78382778 19 8 C15.72234308 9.10861925 14.04690481 8.92934526 10.890625 7.56640625 C10.13652344 7.24736328 9.38242188 6.92832031 8.60546875 6.59960938 C7.82816406 6.25736328 7.05085937 5.91511719 6.25 5.5625 C5.45722656 5.22412109 4.66445312 4.88574219 3.84765625 4.53710938 C1.89407194 3.70154018 -0.0535672 2.85209558 -2 2 C-1.34 1.34 -0.68 0.68 0 0 Z " fill="#0BB9FE" transform="translate(181,107)"/>
<path d="M0 0 C5.50930626 1.62774958 5.50930626 1.62774958 7.8125 3.375 C10.68195038 5.50659171 13.77517463 6.69070128 17.07421875 8.03515625 C19 9 19 9 20 11 C12.30605923 9.06074854 4.58201104 6.87301656 0 0 Z " fill="#0BBDFE" transform="translate(142,90)"/>
<path d="M0 0 C-1.76997474 0.81436868 -3.54101152 1.6264294 -5.3125 2.4375 C-6.29863281 2.88996094 -7.28476563 3.34242187 -8.30078125 3.80859375 C-11.77767784 5.34325867 -14.41579972 6.12433115 -18.1875 6.0625 C-20.0746875 6.0315625 -20.0746875 6.0315625 -22 6 C-18.51134231 3.6742282 -14.96055189 2.54929156 -11 1.3125 C-9.91332031 0.95575195 -9.91332031 0.95575195 -8.8046875 0.59179688 C-3.36149591 -1.12049864 -3.36149591 -1.12049864 0 0 Z " fill="#73DFF6" transform="translate(184,55)"/>
<path d="M0 0 C5.63147648 0.40956193 9.84981495 1.58120443 14.921875 4.0625 C16.93890353 4.97243768 18.84197416 5.53339982 21 6 C21 6.66 21 7.32 21 8 C13.51747162 6.62820313 6.94395046 4.07836721 0 1 C0 0.67 0 0.34 0 0 Z " fill="#0CBDFF" transform="translate(200,116)"/>
<path d="M0 0 C0.66 0.33 1.32 0.66 2 1 C0.83857315 5.35535069 -0.07699505 7.64619703 -4 10 C-4.25 7.25 -4.25 7.25 -4 4 C-2 1.625 -2 1.625 0 0 Z " fill="#8FE5F7" transform="translate(399,458)"/>
<path d="M0 0 C7.23820173 0.34467627 11.91590189 2.10214991 18 6 C13.82356045 7.39214652 11.16562207 5.70664266 7.3125 4.0625 C6.61060547 3.77181641 5.90871094 3.48113281 5.18554688 3.18164062 C3.45349225 2.46289687 1.72626219 1.73254669 0 1 C0 0.67 0 0.34 0 0 Z " fill="#C4F4FB" transform="translate(206,421)"/>
<path d="M0 0 C0.33 0.99 0.66 1.98 1 3 C0.07421875 4.82421875 0.07421875 4.82421875 -1.3125 6.6875 C-1.76238281 7.31011719 -2.21226562 7.93273437 -2.67578125 8.57421875 C-3.11277344 9.04472656 -3.54976563 9.51523437 -4 10 C-4.66 10 -5.32 10 -6 10 C-6 10.66 -6 11.32 -6 12 C-6.99 12.33 -7.98 12.66 -9 13 C-9 12.01 -9 11.02 -9 10 C-8.34 10 -7.68 10 -7 10 C-6.67 9.01 -6.34 8.02 -6 7 C-4.68799596 5.64567325 -3.35368596 4.31266518 -2 3 C-1.34 2.01 -0.68 1.02 0 0 Z " fill="#1095F1" transform="translate(286,291)"/>
<path d="M0 0 C3.66172475 0.62678171 6.8818995 1.64451846 10.3125 3.0625 C11.19550781 3.42472656 12.07851563 3.78695312 12.98828125 4.16015625 C13.65214844 4.43730469 14.31601562 4.71445313 15 5 C11.57056481 6.18771723 9.62215325 5.80226223 6.25 4.5625 C5.45078125 4.27503906 4.6515625 3.98757812 3.828125 3.69140625 C3.22484375 3.46324219 2.6215625 3.23507813 2 3 C2 2.34 2 1.68 2 1 C1.34 0.67 0.68 0.34 0 0 Z " fill="#A5EDF9" transform="translate(310,160)"/>
<path d="M0 0 C0.66 0.33 1.32 0.66 2 1 C0.37660195 2.70884005 -1.29319053 4.37446717 -3 6 C-3.66 6 -4.32 6 -5 6 C-5.33 7.32 -5.66 8.64 -6 10 C-6.99 10 -7.98 10 -9 10 C-7.61811547 6.78956118 -6.07578097 4.95063635 -3.375 2.75 C-2.74335937 2.22921875 -2.11171875 1.7084375 -1.4609375 1.171875 C-0.73777344 0.59179688 -0.73777344 0.59179688 0 0 Z " fill="#69BBF2" transform="translate(121,74)"/>
<path d="M0 0 C5.23175837 -0.38281159 8.37802694 0.78145293 13 3 C13 3.33 13 3.66 13 4 C11.58297487 3.85769192 10.1663904 3.71099254 8.75 3.5625 C7.56664062 3.44068359 7.56664062 3.44068359 6.359375 3.31640625 C4.17635361 3.02365007 2.1226818 2.57935581 0 2 C0 1.34 0 0.68 0 0 Z " fill="#9AE9F7" transform="translate(368,185)"/>
<path d="M0 0 C4.05819183 0.65503282 7.53971282 1.94559121 11.3125 3.5625 C12.38113281 4.01753906 13.44976562 4.47257813 14.55078125 4.94140625 C15.76314453 5.46541016 15.76314453 5.46541016 17 6 C12.34259554 7.55246815 8.44636319 5.80474316 4 4 C1.375 1.8125 1.375 1.8125 0 0 Z " fill="#B6F2FB" transform="translate(325,166)"/>
<path d="M0 0 C8.19256018 0.35010941 8.19256018 0.35010941 11.5625 3.0625 C12.036875 3.701875 12.51125 4.34125 13 5 C8.39146203 4.27991594 4.32762591 2.68704061 0 1 C0 0.67 0 0.34 0 0 Z " fill="#BCF2FA" transform="translate(227,429)"/>
<path d="M0 0 C4.03854121 5.0920737 4.10306393 8.71310016 4 15 C3.67 15 3.34 15 3 15 C1.42922093 9.97350697 0.55145271 5.23880078 0 0 Z " fill="#7CE0F4" transform="translate(285,48)"/>
<path d="M0 0 C1.65 0 3.3 0 5 0 C5.66 1.32 6.32 2.64 7 4 C4.69 3.67 2.38 3.34 0 3 C0 2.01 0 1.02 0 0 Z " fill="#96E7FA" transform="translate(347,473)"/>
<path d="M0 0 C2.97 0.99 5.94 1.98 9 3 C9 3.33 9 3.66 9 4 C6.69 4 4.38 4 2 4 C1.34 2.68 0.68 1.36 0 0 Z " fill="#AFEDF7" transform="translate(289,151)"/>
</svg>
